<?xml version="1.0" encoding="utf-8"?>
<!-- Generator: Adobe Illustrator 14.0.0, SVG Export Plug-In . SVG Version: 6.00 Build 43363)  -->
<!DOCTYPE svg PUBLIC "-//W3C//DTD SVG 1.1//EN" "http://www.w3.org/Graphics/SVG/1.1/DTD/svg11.dtd">
<svg version="1.1" id="图层_1" xmlns="http://www.w3.org/2000/svg" xmlns:xlink="http://www.w3.org/1999/xlink" x="0px" y="0px"
	 width="46px" height="50px" viewBox="0 0 46 50" enable-background="new 0 0 46 50" xml:space="preserve">
<path fill="#6FBE45" d="M6.656,50.125c0.35,0,0.634-0.281,0.634-0.628v-1.458H6.571c-0.185,0-0.368-0.013-0.549-0.028v1.486
	C6.022,49.844,6.306,50.125,6.656,50.125"/>
<path fill="#6FBE45" d="M7.29,48.039v-4.832c0-0.347-0.283-0.629-0.634-0.629c-0.35,0-0.634,0.282-0.634,0.629v4.804
	c0.181,0.016,0.364,0.028,0.549,0.028H7.29z"/>
<path fill="#6FBE45" d="M11.844,50.125c0.35,0,0.634-0.281,0.634-0.628v-1.458H11.21v1.458
	C11.21,49.844,11.494,50.125,11.844,50.125"/>
<path fill="#6FBE45" d="M12.478,43.207c0-0.347-0.283-0.629-0.634-0.629c-0.35,0-0.634,0.282-0.634,0.629v4.832h1.268V43.207z"/>
<path fill="#6FBE45" d="M17.162,50.125c0.351,0,0.634-0.281,0.634-0.628v-1.458h-1.268v1.458
	C16.528,49.844,16.812,50.125,17.162,50.125"/>
<path fill="#6FBE45" d="M17.796,43.207c0-0.347-0.284-0.629-0.634-0.629c-0.35,0-0.634,0.282-0.634,0.629v4.832h1.268V43.207z"/>
<path fill="#6FBE45" d="M22.393,50.125c0.35,0,0.634-0.281,0.634-0.628v-1.458h-1.268v1.458
	C21.759,49.844,22.042,50.125,22.393,50.125"/>
<path fill="#6FBE45" d="M23.027,43.207c0-0.347-0.283-0.629-0.634-0.629c-0.35,0-0.634,0.282-0.634,0.629v4.832h1.268V43.207z"/>
<path fill="#6FBE45" d="M27.84,50.125c0.352,0,0.635-0.281,0.635-0.628v-1.458h-1.268v1.458
	C27.207,49.844,27.49,50.125,27.84,50.125"/>
<path fill="#6FBE45" d="M28.475,43.207c0-0.347-0.283-0.629-0.635-0.629c-0.35,0-0.633,0.282-0.633,0.629v4.832h1.268V43.207z"/>
<path fill="#6FBE45" d="M32.855,50.125c0.35,0,0.635-0.281,0.635-0.628v-1.458h-1.27v1.458
	C32.221,49.844,32.504,50.125,32.855,50.125"/>
<path fill="#6FBE45" d="M33.49,43.207c0-0.347-0.285-0.629-0.635-0.629s-0.635,0.282-0.635,0.629v4.832h1.27V43.207z"/>
<path fill="#6FBE45" d="M38.172,50.125c0.352,0,0.635-0.281,0.635-0.628v-1.458h-1.268v1.458
	C37.539,49.844,37.822,50.125,38.172,50.125"/>
<path fill="#6FBE45" d="M38.807,43.207c0-0.347-0.283-0.629-0.635-0.629c-0.35,0-0.633,0.282-0.633,0.629v4.832h1.268V43.207z"/>
<g>
	<defs>
		<polygon id="SVGID_1_" points="7.929,19.566 11.119,19.566 9.642,10.151 		"/>
	</defs>
	<clipPath id="SVGID_2_">
		<use xlink:href="#SVGID_1_"  overflow="visible"/>
	</clipPath>
	
		<radialGradient id="SVGID_3_" cx="-396.917" cy="324.8906" r="0.9996" gradientTransform="matrix(23.5834 0 0 -23.392 9383.623 7623.9097)" gradientUnits="userSpaceOnUse">
		<stop  offset="0" style="stop-color:#0093D5"/>
		<stop  offset="0.3088" style="stop-color:#0081B9"/>
		<stop  offset="0.9726" style="stop-color:#075A87"/>
		<stop  offset="1" style="stop-color:#0B5885"/>
	</radialGradient>
	<rect x="7.929" y="10.151" clip-path="url(#SVGID_2_)" fill="url(#SVGID_3_)" width="3.19" height="9.415"/>
</g>
<g>
	<defs>
		<path id="SVGID_4_" d="M32.918,28.914l0.367,0.363l-2.986,2.963l-2.047-2.028l0.367-0.364l1.68,1.666L32.918,28.914z
			 M26.232,31.305c0,2.462,1.895,4.465,4.225,4.465c2.328,0,4.225-2.003,4.225-4.465s-1.896-4.466-4.225-4.466
			C28.127,26.839,26.232,28.843,26.232,31.305"/>
	</defs>
	<clipPath id="SVGID_5_">
		<use xlink:href="#SVGID_4_"  overflow="visible"/>
	</clipPath>
	
		<radialGradient id="SVGID_6_" cx="-396.9165" cy="324.8906" r="1" gradientTransform="matrix(23.5834 0 0 -23.392 9383.623 7623.9097)" gradientUnits="userSpaceOnUse">
		<stop  offset="0" style="stop-color:#0093D5"/>
		<stop  offset="0.3088" style="stop-color:#0081B9"/>
		<stop  offset="0.9726" style="stop-color:#075A87"/>
		<stop  offset="1" style="stop-color:#0B5885"/>
	</radialGradient>
	<rect x="26.232" y="26.839" clip-path="url(#SVGID_5_)" fill="url(#SVGID_6_)" width="8.449" height="8.931"/>
</g>
<g>
	<defs>
		<path id="SVGID_7_" d="M19.833,33.792v-4.723c0-0.547,0-2.688,2.123-2.688c2.276,0,2.276,2.036,2.276,2.036v1.353h-1.181
			c0,0,0.01-0.977,0-1.369c0,0-0.025-0.817-0.937-0.817s-0.878,0.817-0.878,0.817v5.992c0,0.15,0.005,0.968,0.913,0.968
			c0.89,0,0.902-0.85,0.902-0.951v-1.603h1.181v1.803c0,0.123,0,2.003-2.139,2.003C19.833,36.613,19.833,34.469,19.833,33.792
			 M7.711,34.247c0-1.593-2.991-3.207-2.991-5.588c0,0,0-2.333,2.119-2.333c2.273,0,2.273,2.034,2.273,2.034v0.999H7.933
			c0,0,0.011-0.624,0-1.016c0,0-0.025-0.816-0.935-0.816s-0.917,0.96-0.917,0.96c0,1.746,3.032,3.301,3.032,5.798
			c0,0,0,2.332-2.119,2.332c-2.273,0-2.273-2.034-2.273-2.034v-0.998H5.9c0,0-0.011,0.271,0,0.662c0,0,0.025,1.17,0.935,1.17
			C7.63,35.417,7.711,34.601,7.711,34.247 M10.283,26.326h1.172v10.287h-1.172V26.326z M12.945,26.326h1.083v9.029h2.358v1.074
			h-2.358h-1.083l0,0V26.326z M17.472,26.326h1.173v10.287h-1.173V26.326z M39.934,26.277h1.182v10.331h-1.182l-2.166-6.692v6.692
			h-1.27V26.277h1.27l2.166,6.717V26.277z M25.195,31.305c0-3.03,2.359-5.495,5.262-5.495c2.9,0,5.262,2.464,5.262,5.495
			c0,3.029-2.361,5.494-5.262,5.494C27.555,36.799,25.195,34.334,25.195,31.305 M39.404,21.343V7.521h1.928v13.684
			c0,0,0,3.973-3.754,3.973c-3.752,0-3.752-3.973-3.752-3.973V7.521h1.932v13.822c0,0,0,1.804,1.82,1.804
			C39.404,23.146,39.404,21.343,39.404,21.343 M8.065,7.138h3.264l2.722,17.784h-2.136l-0.511-3.532H7.597L7.02,24.922H4.706
			L8.065,7.138z M15.136,20.204v-8.328c0-0.964,0-4.738,3.679-4.738c3.945,0,3.945,3.59,3.945,3.59v2.383h-2.047
			c0,0,0.019-1.722,0-2.413c0,0-0.044-1.442-1.624-1.442s-1.521,1.442-1.521,1.442v10.564c0,0.265,0.008,1.707,1.583,1.707
			c1.541,0,1.562-1.499,1.562-1.677v-2.825h2.047v3.178c0,0.217,0,3.532-3.708,3.532C15.136,25.178,15.136,21.396,15.136,20.204
			 M24.375,20.204v-8.328c0-0.964,0-4.738,3.678-4.738c3.945,0,3.945,3.59,3.945,3.59v2.383h-2.047c0,0,0.02-1.722,0-2.413
			c0,0-0.043-1.442-1.623-1.442s-1.521,1.442-1.521,1.442v10.564c0,0.265,0.008,1.707,1.582,1.707c1.541,0,1.563-1.499,1.563-1.677
			v-2.825h2.047v3.178c0,0.217,0,3.532-3.707,3.532C24.375,25.178,24.375,21.396,24.375,20.204 M6.572,0.125
			C2.942,0.125,0,3.043,0,6.644v34.877c0,3.185,2.303,5.831,5.346,6.401v-4.715c0-0.725,0.595-1.314,1.326-1.314
			c0.731,0,1.326,0.59,1.326,1.314v4.832h2.536v-4.832c0-0.725,0.595-1.314,1.325-1.314c0.731,0,1.327,0.59,1.327,1.314v4.832h2.665
			v-4.832c0-0.725,0.595-1.314,1.326-1.314c0.731,0,1.326,0.59,1.326,1.314v4.832h2.58v-4.832c0-0.725,0.595-1.314,1.325-1.314
			c0.731,0,1.326,0.59,1.326,1.314v4.832h2.796v-4.832c0-0.725,0.594-1.314,1.324-1.314c0.732,0,1.328,0.59,1.328,1.314v4.832h2.361
			v-4.832c0-0.725,0.596-1.314,1.326-1.314s1.326,0.59,1.326,1.314v4.832h2.666v-4.832c0-0.725,0.596-1.314,1.326-1.314
			s1.326,0.59,1.326,1.314v4.827C43.104,47.988,46,45.092,46,41.521V6.644c0-3.6-3.287-6.518-6.918-6.518H6.572z"/>
	</defs>
	<clipPath id="SVGID_8_">
		<use xlink:href="#SVGID_7_"  overflow="visible"/>
	</clipPath>
	
		<radialGradient id="SVGID_9_" cx="-396.916" cy="324.8906" r="0.9998" gradientTransform="matrix(23.5834 0 0 -23.392 9383.623 7623.9097)" gradientUnits="userSpaceOnUse">
		<stop  offset="0" style="stop-color:#0093D5"/>
		<stop  offset="0.3088" style="stop-color:#0081B9"/>
		<stop  offset="0.9726" style="stop-color:#075A87"/>
		<stop  offset="1" style="stop-color:#0B5885"/>
	</radialGradient>
	<rect y="0.125" clip-path="url(#SVGID_8_)" fill="url(#SVGID_9_)" width="46" height="47.914"/>
</g>
</svg>
